# Blender 4.2.3 LTS
# www.blender.org
mtllib bigwall.mtl
o Cube
v -1.555313 -0.004497 1.528423
v -1.555313 1.995502 1.528423
v -1.555313 -0.004497 -1.528423
v -1.555313 1.995502 -1.528423
v 1.555313 -0.004497 1.528423
v 1.555313 1.995502 1.528423
v 1.555313 -0.004497 -1.528423
v 1.555313 1.995502 -1.528423
vn -1.0000 -0.0000 -0.0000
vn -0.0000 -0.0000 -1.0000
vn 1.0000 -0.0000 -0.0000
vn -0.0000 -1.0000 -0.0000
vn -0.0000 1.0000 -0.0000
vt 0.625000 0.000000
vt 0.375000 0.250000
vt 0.375000 0.000000
vt 0.625000 0.250000
vt 0.375000 0.500000
vt 0.625000 0.500000
vt 0.375000 0.750000
vt 0.125000 0.750000
vt 0.125000 0.500000
vt 0.875000 0.500000
vt 0.625000 0.750000
vt 0.875000 0.750000
s 0
f 2/1/1 3/2/1 1/3/1
f 4/4/2 7/5/2 3/2/2
f 8/6/3 5/7/3 7/5/3
f 7/5/4 1/8/4 3/9/4
f 4/10/5 6/11/5 8/6/5
f 2/1/1 4/4/1 3/2/1
f 4/4/2 8/6/2 7/5/2
f 8/6/3 6/11/3 5/7/3
f 7/5/4 5/7/4 1/8/4
f 4/10/5 2/12/5 6/11/5
