# Blender 4.2.3 LTS
# www.blender.org
mtllib walls2.mtl
o backWall
v 2.020211 1.590000 -1.040000
v -2.060615 1.590000 -1.040000
v -2.000009 -0.000000 -1.040000
v 2.020211 -0.000000 -1.040000
vn -0.0000 -0.0000 1.0000
vt 0.000000 1.000000
s 1
usemtl backWall.002
f 1/1/1 2/1/1 3/1/1
f 4/1/1 1/1/1 3/1/1
o ceiling
v 2.020211 1.590000 -1.044137
v 2.020211 1.590000 3.117744
v -2.060615 1.590000 3.117744
v -2.060615 1.590000 -1.044137
vn -0.0000 -1.0000 -0.0000
vt 0.000000 1.000000
s 1
usemtl ceiling.002
f 5/2/2 6/2/2 7/2/2
f 8/2/2 5/2/2 7/2/2
o floor
v 2.020211 -0.000000 -1.044136
v -2.000009 -0.000000 -1.044136
v -2.040413 0.000000 3.117744
v 2.020211 0.000000 3.117744
vn -0.0000 1.0000 -0.0000
vt 0.000000 1.000000
s 1
usemtl floor.002
f 9/3/3 10/3/3 11/3/3
f 12/3/3 9/3/3 11/3/3
